# xmcd
# 
# Track frame offsets:
#     150
#     23866
#     44389
#     64634
#     82215
#     101171
#     117623
#     137404
#     152893
#     175392
#     201975
#     214709
#     235120
#     253793
# 
# Disc length: 3521
# 
# Revision: 2
# Processed by: cddbd v1.5.2PL0 Copyright (c) Steve Scherf et al.
# Submitted via: BonkEnc v1.0.6
# 
DISCID=cd0dbf0e
DTITLE=Schürzenjäger - 25 Jahre
DYEAR=1998
DGENRE=
TTITLE0=Schwanenkönig
TTITLE1=Dann vermiß i di
TTITLE2=Träume sind stärker
TTITLE3=Auf einmal warst du da
TTITLE4=Da draußen is' Sommer
TTITLE5=Großer Manitou
TTITLE6=Für mi bist du's
TTITLE7=Alle Sirenen gingen los
TTITLE8=Das verlorene Paradies
TTITLE9=I werd da sein
TTITLE10=Sollt halt net so bleib'n (Instrumental)
TTITLE11=Einmal, eines Tages...
TTITLE12=Jed'n Herzschlag wert
TTITLE13=Träume sind Strärker (Instrumental)
EXTD=
EXTT0=
EXTT1=
EXTT2=
EXTT3=
EXTT4=
EXTT5=
EXTT6=
EXTT7=
EXTT8=
EXTT9=
EXTT10=
EXTT11=
EXTT12=
EXTT13=
PLAYORDER=
